<svg xmlns="http://www.w3.org/2000/svg" xmlns:xlink="http://www.w3.org/1999/xlink" version="1.1" x="0px" y="0px" viewBox="0 0 100 100" enable-background="new 0 0 100 100" xml:space="preserve"><path d="M63.729,14.331v3.026c0,1.546-1.25,2.793-2.793,2.793H39.064c-0.25,0-0.491-0.032-0.721-0.098  c-1.191-0.312-2.072-1.398-2.072-2.695v-3.026c0-1.542,1.251-2.792,2.793-2.792h1.916V9.098c0-1.543,1.25-2.789,2.796-2.789h12.446  c1.114,0,2.08,0.65,2.524,1.598c0.171,0.361,0.269,0.763,0.269,1.191v2.441h1.92C62.479,11.539,63.729,12.789,63.729,14.331z"/><polygon points="68.194,32.897 68.194,32.897 31.805,32.897 31.805,32.897 31.805,27.103 31.805,27.103 68.194,27.103   68.194,27.103 "/><polygon points="68.194,44.025 68.194,44.025 31.805,44.025 31.805,44.025 31.805,38.229 31.805,38.229 68.194,38.229   68.194,38.229 "/><polygon points="52.459,55.384 52.459,55.384 31.947,55.384 31.947,55.384 31.947,49.588 31.947,49.588 52.459,49.588   52.459,49.588 "/><path d="M53.618,84.6l-1.032,5.366H25.683c-1.079,0-2.088-0.314-2.937-0.86c-0.486-0.307-0.924-0.692-1.289-1.141  c-0.779-0.946-1.25-2.157-1.25-3.474v-66.09c0-3.007,2.453-5.476,5.476-5.476h7.177c-0.003,0.016-0.007,0.031-0.007,0.046  c-0.086,0.448-0.156,0.9-0.156,1.367v3.022c0,0.323,0.035,0.646,0.094,0.951l-7.107-0.021l-0.109,66.199  c0,0.055,0.039,0.108,0.109,0.108H53.618z"/><path d="M79.793,18.405l-0.008,66.086c0,3.006-2.453,5.475-5.48,5.475h-3.131L70.146,84.6h4.158c0.074,0,0.109-0.054,0.109-0.108  l0.008-66.086l-7.088-0.016h-0.132c0.054-0.34,0.104-0.678,0.104-1.028v-3.03c0-0.483-0.073-0.946-0.175-1.401h7.185  c0.725,0,1.419,0.14,2.053,0.4c0.975,0.395,1.808,1.061,2.407,1.905c0.004,0.004,0.008,0.004,0.008,0.008  C79.419,16.139,79.793,17.229,79.793,18.405z"/><g><path d="M65.42,79.634c-0.254,0.834-1.025,1.079-1.713,0.544c-0.688-0.535-1.753-0.465-2.365,0.155s-1.409,0.479-1.771-0.314   s-1.337-1.226-2.167-0.96c-0.83,0.265-1.47-0.23-1.421-1.102S55.37,76.25,54.512,76.1c-0.858-0.151-1.194-0.888-0.746-1.635   c0.448-0.748,0.25-1.797-0.439-2.33c-0.69-0.532-0.646-1.34,0.098-1.795c0.744-0.453,1.057-1.474,0.693-2.266   c-0.363-0.793,0.052-1.487,0.922-1.544c0.869-0.057,1.619-0.814,1.666-1.686c0.048-0.871,0.737-1.293,1.533-0.938   c0.796,0.355,1.813,0.033,2.259-0.717c0.446-0.748,1.254-0.802,1.794-0.117c0.541,0.684,1.591,0.87,2.334,0.414   c0.743-0.457,1.482-0.129,1.643,0.729c0.161,0.856,1.005,1.51,1.874,1.451s1.372,0.575,1.116,1.409s0.188,1.804,0.984,2.156   s0.947,1.147,0.334,1.767c-0.614,0.618-0.673,1.684-0.131,2.366c0.543,0.683,0.307,1.456-0.525,1.72   c-0.831,0.263-1.378,1.178-1.215,2.034s-0.406,1.431-1.264,1.278C66.583,78.242,65.673,78.8,65.42,79.634z"/></g><polygon points="65.18,76.512 61.881,75.589 58.584,76.512 55.285,93.691 61.881,91.289 68.478,93.691 "/></svg>