<?xml version="1.0" encoding="utf-8"?>
<!-- Generator: Adobe Illustrator 17.0.0, SVG Export Plug-In . SVG Version: 6.00 Build 0)  -->
<!DOCTYPE svg PUBLIC "-//W3C//DTD SVG 1.1//EN" "http://www.w3.org/Graphics/SVG/1.1/DTD/svg11.dtd">
<svg version="1.1" id="Layer_1" xmlns="http://www.w3.org/2000/svg" xmlns:xlink="http://www.w3.org/1999/xlink" x="0px" y="0px"
	 width="766.071px" height="41.071px" viewBox="0 0 766.071 41.071" enable-background="new 0 0 766.071 41.071"
	 xml:space="preserve">
<g>
	<rect x="39.205" y="20.211" fill="#4D4D4D" width="688.144" height="0.647"/>
	<g>
		<polygon fill="#4D4D4D" points="735.138,18.108 726.194,20.536 733.471,14.804 742.413,12.376 		"/>
		<polygon fill="#4D4D4D" points="735.138,22.963 726.194,20.536 733.471,26.268 742.413,28.696 		"/>
		<polygon fill="#4D4D4D" points="737.538,22.847 726.194,20.536 737.538,18.223 748.882,20.536 		"/>
	</g>
	<g>
		<polygon fill="#4D4D4D" points="30.936,22.963 39.877,20.534 32.598,26.268 23.657,28.696 		"/>
		<polygon fill="#4D4D4D" points="30.936,18.107 39.877,20.534 32.598,14.803 23.657,12.376 		"/>
		<polygon fill="#4D4D4D" points="28.532,18.223 39.877,20.534 28.532,22.847 17.19,20.534 		"/>
	</g>
	<polygon fill="#4D4D4D" points="58.678,20.534 54.819,22.778 50.961,20.534 54.819,18.292 	"/>
	<polygon fill="#4D4D4D" points="715.069,20.534 711.21,22.778 707.351,20.534 711.21,18.292 	"/>
</g>
</svg>
