<svg xmlns="http://www.w3.org/2000/svg" xmlns:xlink="http://www.w3.org/1999/xlink" x="0px"
	 y="0px" viewBox="0 0 652 155.9" xml:space="preserve">
<g id="simbolo">
	<g>
		<g>
			<path fill="#0073BE" d="M131.1,131.1c20.8-20.8,23.5-53.6,9-80.9c3.8,8.5,5.9,17.9,5.9,27.7c0,37.6-30.5,68-68,68
				c-9.9,0-19.3-2.1-27.7-5.9C77.5,154.6,110.3,151.9,131.1,131.1z"/>
			<path fill="#0073BE" d="M15.8,105.7C12,97.2,9.9,87.8,9.9,78c0-37.6,30.5-68,68-68c9.9,0,19.3,2.1,27.7,5.9
				c-27.3-14.5-60-11.9-80.9,9C4,45.6,1.3,78.4,15.8,105.7z"/>
		</g>
		<g>
			<path fill="#0073BE" d="M129,26.9c26.7,26.7,31.5,66.5,13.4,94.9c8.5-12.5,13.5-27.6,13.5-43.9c0-43.1-34.9-78-78-78
				C61.7,0,46.6,5,34.1,13.5C62.5-4.6,102.3,0.2,129,26.9z"/>
			<path fill="#0073BE" d="M26.9,129C0.2,102.3-4.6,62.5,13.5,34.1C5,46.6,0,61.7,0,78c0,43.1,34.9,78,78,78
				c16.3,0,31.4-5,43.9-13.5C93.4,160.5,53.7,155.7,26.9,129z"/>
		</g>
		<g>
			<path fill="#0073BE" d="M114.4,41.5L78,26.4L41.5,41.5L26.4,78l15.1,36.5L78,129.5l36.5-15.1L129.5,78L114.4,41.5z M114.1,112.5
				l-10-34.1h24.1L114.1,112.5z M27.7,78.5h24.1l-10,34.1L27.7,78.5z M41.8,43.4l10,34.1H27.7L41.8,43.4z M77.5,77.5H53.6l23.8-23.8
				V77.5z M77.5,78.5v23.8L53.6,78.5H77.5z M78.5,78.5h23.8l-23.8,23.8V78.5z M78.5,77.5V53.6l23.8,23.8H78.5z M52.7,77L42.6,42.6
				L77,52.7L52.7,77z M77,103.2l-34.4,10.1l10.1-34.4L77,103.2z M103.2,78.9l10.1,34.4l-34.4-10.1L103.2,78.9z M78.9,52.7l34.4-10.1
				L103.2,77L78.9,52.7z M78.5,51.8V27.7l34.1,14.1L78.5,51.8z M77.5,51.8l-34.1-10l34.1-14.1V51.8z M77.5,104.1v24.1l-34.1-14.1
				L77.5,104.1z M78.5,104.1l34.1,10l-34.1,14.1V104.1z M104.1,77.5l10-34.1l14.1,34.1H104.1z"/>
			<g>
				<circle fill="#0073BE" cx="52.4" cy="78" r="5.7"/>
				<circle fill="#0073BE" cx="78" cy="26.9" r="7.1"/>
				<circle fill="#0073BE" cx="78" cy="78" r="5.7"/>
				<circle fill="#0073BE" cx="78" cy="129" r="7.1"/>
				<circle fill="#0073BE" cx="26.9" cy="78" r="7.1"/>
				<circle fill="#0073BE" cx="129" cy="78" r="7.1"/>
				<circle fill="#0073BE" cx="41.9" cy="41.9" r="5.7"/>
				<circle fill="#0073BE" cx="114" cy="114" r="5.7"/>
				<circle fill="#0073BE" cx="41.9" cy="114" r="5.7"/>
				<circle fill="#0073BE" cx="114" cy="41.9" r="5.7"/>
				<circle fill="#0073BE" cx="103.5" cy="78" r="5.7"/>
				<circle fill="#0073BE" cx="78" cy="103.5" r="5.7"/>
				<circle fill="#0073BE" cx="78" cy="52.4" r="5.7"/>
			</g>
		</g>
	</g>
	<path fill="#82A0AF" d="M282.8-32.6h-11.3c-5.9,0-10.6-4.8-10.6-10.6v0c0-5.9,4.8-10.6,10.6-10.6h11.3c5.9,0,10.6,4.8,10.6,10.6v0
		C293.4-37.4,288.6-32.6,282.8-32.6z"/>
</g>
<g id="texto">
	<g>
		<g>
			<path fill="#0073BE" d="M632.7,109.4c0,4.3,3.9,7.1,8.1,7.1c2.8,0,4.8-1.4,6.6-3.6l3.4,2.7c-2.5,3.3-6,5-10.6,5
				c-7.6,0-12.4-5.5-12.4-12.8c0-7.3,5.2-12.8,12.4-12.8c8.5,0,11.7,6.6,11.7,12.8v1.6H632.7z M647.1,105.7c-0.1-4-2.3-7.1-6.9-7.1
				c-4.5,0-7.4,3.8-7.4,7.1H647.1z"/>
			<path fill="#0073BE" d="M622.2,119.9h-4.9v-3.5h-0.1c-1.9,2.6-5.5,4.1-8.9,4.1c-7.9,0-13-5.7-13-12.9c0-7.4,5.1-12.6,13-12.6
				c3.7,0,7.2,1.3,8.9,3.8h0.1V83.6h4.9V119.9z M617.3,107.6c0-5-3.2-8.6-8.4-8.6s-8.4,3.6-8.4,8.6s3.2,8.6,8.4,8.6
				S617.3,112.5,617.3,107.6z"/>
			<path fill="#0073BE" d="M569.6,98.5c2.6-2.4,6.3-3.6,9.6-3.6c7.2,0,10.1,3.9,10.1,8.1v12.4c0,1.7,0.1,3.1,0.2,4.4h-4.1
				c-0.1-1.2-0.2-2.5-0.2-3.7h-0.1c-2,3.1-4.8,4.3-8.5,4.3c-4.5,0-8.4-2.6-8.4-7.3c0-6.2,6-8.4,13.4-8.4h3.4v-1
				c0-2.5-1.8-5.1-5.8-5.1c-3.5,0-5.2,1.5-6.9,2.8L569.6,98.5z M582.6,108.2c-4.4,0-9.7,0.8-9.7,4.7c0,2.8,2,3.9,5.2,3.9
				c5.1,0,6.9-3.8,6.9-7.1v-1.5H582.6z"/>
			<path fill="#0073BE" d="M562.7,119.9h-4.9v-3.5h-0.1c-1.9,2.6-5.5,4.1-8.9,4.1c-7.9,0-13-5.7-13-12.9c0-7.4,5.1-12.6,13-12.6
				c3.7,0,7.2,1.3,8.9,3.8h0.1V83.6h4.9V119.9z M557.8,107.6c0-5-3.2-8.6-8.4-8.6s-8.4,3.6-8.4,8.6s3.2,8.6,8.4,8.6
				S557.8,112.5,557.8,107.6z"/>
			<g>
				<rect x="525.8" y="95" fill="#0073BE" width="4.3" height="25.5"/>
				<circle fill="#0073BE" cx="528" cy="86.5" r="2.8"/>
			</g>
			<rect x="514.5" y="83.6" fill="#0073BE" width="4.3" height="36.9"/>
			<path fill="#0073BE" d="M486,98.5c2.6-2.4,6.3-3.6,9.6-3.6c7.2,0,10.1,3.9,10.1,8.1v12.4c0,1.7,0.1,3.1,0.2,4.4h-4.1
				c-0.1-1.2-0.2-2.5-0.2-3.7h-0.1c-2,3.1-4.8,4.3-8.5,4.3c-4.5,0-8.4-2.6-8.4-7.3c0-6.2,6-8.4,13.4-8.4h3.4v-1
				c0-2.5-1.8-5.1-5.8-5.1c-3.5,0-5.2,1.5-6.9,2.8L486,98.5z M499,108.2c-4.4,0-9.7,0.8-9.7,4.7c0,2.8,2,3.9,5.2,3.9
				c5.1,0,6.9-3.8,6.9-7.1v-1.5H499z"/>
			<path fill="#0073BE" d="M479.1,119.8h-4.6V116h-0.1c-1.2,2.6-4.2,4.5-7.9,4.5c-4.7,0-8.7-2.9-8.7-9.5V95h4.6v14.7
				c0,4.7,2.6,6.4,5.5,6.4c3.8,0,6.7-2.5,6.7-8.3V95h4.6V119.8z"/>
			<path fill="#0073BE" d="M452.1,120.5H432c-9.9,0-18.1-7.7-18.1-18.4c0-10.6,7.9-18.5,18.1-18.5c9.8,0,17.8,7.7,17.8,18
				c0,6.1-2.8,12.1-8,14.5v0.1h10.4V120.5z M444.7,101.8c0-7.6-5.5-13.6-12.9-13.6c-7.3,0-12.9,6-12.9,13.5
				c0,7.9,5.3,14.2,12.9,14.2C439.4,115.9,444.7,109.7,444.7,101.8z"/>
			<path fill="#0073BE" d="M381.1,98.5c2.6-2.4,6.3-3.6,9.6-3.6c7.2,0,10.1,3.9,10.1,8.1v12.4c0,1.7,0.1,3.1,0.2,4.4H397
				c-0.1-1.2-0.2-2.5-0.2-3.7h-0.1c-2,3.1-4.8,4.3-8.5,4.3c-4.5,0-8.4-2.6-8.4-7.3c0-6.2,6-8.4,13.4-8.4h3.4v-1
				c0-2.5-1.8-5.1-5.8-5.1c-3.5,0-5.2,1.5-6.9,2.8L381.1,98.5z M394.1,108.2c-4.4,0-9.7,0.8-9.7,4.7c0,2.8,2,3.9,5.2,3.9
				c5.1,0,6.9-3.8,6.9-7.1v-1.5H394.1z"/>
			<path fill="#0073BE" d="M374.2,119.9h-4.9v-3.5h-0.1c-1.9,2.6-5.5,4.1-8.9,4.1c-7.9,0-13-5.7-13-12.9c0-7.4,5.1-12.6,13-12.6
				c3.7,0,7.2,1.3,8.9,3.8h0.1V83.6h4.9V119.9z M369.3,107.6c0-5-3.2-8.6-8.4-8.6s-8.4,3.6-8.4,8.6s3.2,8.6,8.4,8.6
				S369.3,112.5,369.3,107.6z"/>
			<path fill="#0073BE" d="M321.7,95c7.1,0,12.8,5.7,12.8,12.8c0,7.1-5.6,12.8-12.8,12.8c-7.1,0-12.8-5.7-12.8-12.8
				C309,100.6,314.6,95,321.7,95z M321.7,116.2c4.9,0,7.9-3.5,7.9-8.5s-3-8.5-7.9-8.5c-4.9,0-7.9,3.5-7.9,8.5
				S316.9,116.2,321.7,116.2z"/>
			<g>
				<path fill="#0073BE" d="M284.9,89.3c0.5-2.7,2.1-5.5,5.1-5.5c1.5,0,2.9,0.6,4.3,1.2c1,0.4,1.7,0.9,2.7,0.9c1.4,0,2.1-1,2.5-2.3
					h2.4c-0.4,2.7-1.8,5.5-4.8,5.5c-1.4,0-2.8-0.6-4.1-1.1c-1-0.4-2.2-1-3.3-1c-1.3,0-2,1.2-2.4,2.3H284.9z"/>
				<path fill="#0073BE" d="M283.3,98.5c2.6-2.4,6.3-3.6,9.6-3.6c7.2,0,10.1,3.9,10.1,8.1v12.4c0,1.7,0.1,3.1,0.2,4.4h-4.1
					c-0.1-1.2-0.2-2.5-0.2-3.7H299c-2,3.1-4.8,4.3-8.5,4.3c-4.5,0-8.4-2.6-8.4-7.3c0-6.2,6-8.4,13.4-8.4h3.4v-1
					c0-2.5-1.8-5.1-5.8-5.1c-3.5,0-5.2,1.5-6.9,2.8L283.3,98.5z M296.3,108.2c-4.4,0-9.7,0.8-9.7,4.7c0,2.8,2,3.9,5.2,3.9
					c5.1,0,6.9-3.8,6.9-7.1v-1.5H296.3z"/>
			</g>
			<path fill="#0073BE" d="M276.4,98.9h-6.9v11.9c0,2.7,0,5.5,3.5,5.5c1.1,0,2.4-0.2,3.3-0.7v4.1c-1.1,0.6-3.3,0.8-4.2,0.8
				c-7.3,0-7.4-4.3-7.4-8.1V98.9h-5.4V95h5.4v-5.7h4.7V95h6.9V98.9z"/>
			<path fill="#0073BE" d="M250.7,101.7c-1.1-1.3-2.8-2.4-5.1-2.4c-2.2,0-4.2,1-4.2,2.7c0,2.9,4.3,3.3,6.4,3.8
				c4.1,1,7.3,2.5,7.3,7.1c0,5.5-5.2,7.6-10.2,7.6c-4.1,0-7.2-1-9.7-4.3l3.6-2.9c1.5,1.5,3.3,2.9,6.1,2.9c2.4,0,5.1-1,5.1-3.1
				c0-2.8-4-3.3-6-3.7c-4.1-1-7.7-2.3-7.7-6.9c0-5.1,4.8-7.5,9.5-7.5c3.3,0,6.8,1.1,8.6,4L250.7,101.7z"/>
			<path fill="#0073BE" d="M211.8,109.4c0,4.3,3.9,7.1,8.1,7.1c2.8,0,4.8-1.4,6.6-3.6l3.4,2.7c-2.5,3.3-6,5-10.6,5
				c-7.6,0-12.4-5.5-12.4-12.8c0-7.3,5.2-12.8,12.4-12.8c8.5,0,11.7,6.6,11.7,12.8v1.6H211.8z M226.2,105.7c-0.1-4-2.3-7.1-6.9-7.1
				c-4.5,0-7.4,3.8-7.4,7.1H226.2z"/>
			<path fill="#0073BE" d="M201.3,100v17.3c-3.5,2.1-9.2,3.2-13.5,3.2c-12.1,0-19.1-8.5-19.1-18.4c0-10.4,7.7-18.4,18.6-18.4
				c6.6,0,10.5,1.7,13.3,4.6l-3.4,3.6c-2.9-2.8-6.3-3.7-9.9-3.7c-8.2,0-13.5,6.3-13.5,14c0,7.9,6,14,13.9,14c3.4,0,6.6-0.6,8.8-1.8
				v-9.8h-7.9V100H201.3z"/>
		</g>
		<g>
			<path fill="#0073BE" d="M561.3,45.8h3.3v3h0.1c0.4-1.1,2.7-3.5,6-3.5c2.8,0,4.7,1.2,5.9,3.6c1.2-2.4,3.7-3.6,5.9-3.6
				c5.8,0,7.1,4.2,7.1,8.6v11.3H586V54.4c0-2.9-0.6-5.6-4-5.6c-3.4,0-4.8,2.4-4.8,5.8v10.6h-3.6V55.1c0-3.7-0.5-6.3-4-6.3
				c-2.6,0-4.9,2-4.9,6.4v10h-3.6V45.8z"/>
			<path fill="#0073BE" d="M540.9,56.6c0,3.3,3,5.5,6.2,5.5c2.1,0,3.7-1.1,5-2.8l2.6,2.1c-1.9,2.6-4.6,3.9-8.1,3.9
				c-5.8,0-9.4-4.3-9.4-9.9c0-5.7,4-9.9,9.5-9.9c6.5,0,8.9,5.1,8.9,10v1.3H540.9z M551.9,53.7c-0.1-3.1-1.8-5.5-5.3-5.5
				c-3.4,0-5.7,3-5.7,5.5H551.9z"/>
			<path fill="#0073BE" d="M507,48.8c2-1.9,4.9-2.8,7.5-2.8c5.6,0,7.9,3,7.9,6.3V62c0,1.3,0,2.4,0.2,3.4h-3.2
				c-0.1-1-0.1-1.9-0.1-2.9h-0.1c-1.6,2.4-3.7,3.3-6.6,3.3c-3.5,0-6.5-2-6.5-5.7c0-4.9,4.7-6.5,10.4-6.5h2.6v-0.8c0-2-1.4-4-4.5-4
				c-2.7,0-4.1,1.2-5.4,2.2L507,48.8z M517.1,56.3c-3.4,0-7.5,0.6-7.5,3.6c0,2.2,1.6,3.1,4.1,3.1c4,0,5.4-2.9,5.4-5.5v-1.2H517.1z"
				/>
			<path fill="#0073BE" d="M498.3,50.6c-0.9-1-2.2-1.9-4-1.9c-1.7,0-3.3,0.8-3.3,2.1c0,2.3,3.4,2.6,5,2.9c3.2,0.8,5.7,2,5.7,5.5
				c0,4.3-4.1,5.9-8,5.9c-3.2,0-5.7-0.8-7.6-3.3l2.8-2.2c1.2,1.2,2.6,2.2,4.8,2.2c1.9,0,4-0.8,4-2.4c0-2.2-3.1-2.5-4.7-2.9
				c-3.2-0.8-6-1.8-6-5.4c0-3.9,3.8-5.8,7.5-5.8c2.6,0,5.3,0.9,6.7,3.1L498.3,50.6z"/>
			<g>
				<path fill="#0073BE" d="M478.3,35.4c1.5,0,2.8,1.3,2.8,2.8c0,1.5-1.3,2.8-2.8,2.8c-1.5,0-2.8-1.3-2.8-2.8
					C475.5,36.7,476.8,35.4,478.3,35.4z"/>
				<rect x="476.2" y="45.4" fill="#0073BE" width="4.3" height="19.8"/>
			</g>
			<path fill="#0073BE" d="M469.1,64.7h-3.6v-3h-0.1c-0.9,2-3.4,3.5-6.3,3.5c-3.7,0-7-2.2-7-7.4V45.4h3.6v11.4c0,3.6,2.1,5,4.4,5
				c3,0,5.3-2,5.3-6.5v-10h3.6V64.7z"/>
			<path fill="#0073BE" d="M445,75.1h-3.7V62.3h-0.1c-1.3,2-3.9,2.9-6.6,2.9c-5.8,0-9.5-4-9.5-9.7c0-5.7,3.6-10.1,9.5-10.1
				c2.5,0,5.2,1.2,6.6,3.2h0.1v-2.8h3.7V75.1z M435.1,48.8c-3.8,0-6.2,2.8-6.2,6.7c0,3.9,2.4,6.7,6.2,6.7c3.8,0,6.2-2.8,6.2-6.7
				C441.3,51.6,439,48.8,435.1,48.8z"/>
			<path fill="#0073BE" d="M417.5,50.6c-0.9-1-2.2-1.9-4-1.9c-1.7,0-3.3,0.8-3.3,2.1c0,2.3,3.4,2.6,5,2.9c3.2,0.8,5.7,2,5.7,5.5
				c0,4.3-4.1,5.9-8,5.9c-3.2,0-5.7-0.8-7.6-3.3l2.8-2.2c1.2,1.2,2.6,2.2,4.8,2.2c1.9,0,4-0.8,4-2.4c0-2.2-3.1-2.5-4.7-2.9
				c-3.2-0.8-6-1.8-6-5.4c0-3.9,3.8-5.8,7.5-5.8c2.6,0,5.3,0.9,6.7,3.1L417.5,50.6z"/>
			<path fill="#0073BE" d="M386.4,56.6c0,3.3,3,5.5,6.2,5.5c2.1,0,3.7-1.1,5-2.8l2.6,2.1c-1.9,2.6-4.6,3.9-8.1,3.9
				c-5.8,0-9.4-4.3-9.4-9.9c0-5.7,4-9.9,9.5-9.9c6.5,0,8.9,5.1,8.9,10v1.3H386.4z M397.4,53.7c-0.1-3.1-1.8-5.5-5.3-5.5
				c-3.4,0-5.7,3-5.7,5.5H397.4z"/>
			<path fill="#0073BE" d="M358.6,45.8h3.7v2.8h0.1c1.4-2.1,4-3.2,6.6-3.2c5.9,0,9.5,4.4,9.5,10.1c0,5.8-3.7,9.7-9.5,9.7
				c-2.7,0-5.3-0.9-6.6-2.9h-0.1v12.8h-3.7V45.8z M362.3,55.5c0,3.9,2.4,6.7,6.2,6.7c3.8,0,6.2-2.8,6.2-6.7c0-3.9-2.4-6.7-6.2-6.7
				C364.7,48.8,362.3,51.6,362.3,55.5z"/>
			<path fill="#0073BE" d="M328.3,56.6c0,3.3,3,5.5,6.2,5.5c2.1,0,3.7-1.1,5-2.8l2.6,2.1c-1.9,2.6-4.6,3.9-8.1,3.9
				c-5.8,0-9.4-4.3-9.4-9.9c0-5.7,4-9.9,9.5-9.9c6.5,0,8.9,5.1,8.9,10v1.3H328.3z M339.3,53.7c-0.1-3.1-1.8-5.5-5.3-5.5
				c-3.4,0-5.7,3-5.7,5.5H339.3z"/>
			<path fill="#0073BE" d="M317.5,64.7h-3.6v-2.8h-0.1c-1.4,2.1-4,3.2-6.6,3.2c-5.9,0-9.6-4.4-9.6-10.1c0-5.8,3.8-9.7,9.6-9.7
				c2.7,0,5.3,0.9,6.6,2.9h0.1V35.4h3.6V64.7z M313.9,55.1c0-3.9-2.4-6.7-6.2-6.7s-6.2,2.8-6.2,6.7c0,3.9,2.4,6.7,6.2,6.7
				S313.9,59,313.9,55.1z"/>
			<path fill="#0073BE" d="M276.4,45.4c5.6,0,9.9,4.4,9.9,9.9c0,5.5-4.4,9.9-9.9,9.9s-9.9-4.4-9.9-9.9
				C266.5,49.8,270.8,45.4,276.4,45.4z M276.4,61.8c3.8,0,6.1-2.7,6.1-6.6c0-3.8-2.4-6.6-6.1-6.6c-3.8,0-6.1,2.7-6.1,6.6
				C270.2,59.1,272.6,61.8,276.4,61.8z"/>
			<path fill="#0073BE" d="M240.9,45.8h3.7v2.8h0.1c1.4-2.1,4-3.2,6.6-3.2c5.9,0,9.5,4.4,9.5,10.1c0,5.8-3.7,9.7-9.5,9.7
				c-2.7,0-5.3-0.9-6.6-2.9h-0.1v12.8h-3.7V45.8z M244.6,55.5c0,3.9,2.4,6.7,6.2,6.7c3.8,0,6.2-2.8,6.2-6.7c0-3.9-2.4-6.7-6.2-6.7
				C247,48.8,244.6,51.6,244.6,55.5z"/>
			<path fill="#0073BE" d="M235.3,64.7h-3.6v-3h-0.1c-0.9,2-3.4,3.5-6.3,3.5c-3.7,0-7-2.2-7-7.4V45.4h3.6v11.4c0,3.6,2.1,5,4.4,5
				c3,0,5.3-2,5.3-6.5v-10h3.6V64.7z"/>
			<path fill="#0073BE" d="M201.3,45.8h3.7v3h0.1c1-2,3.4-3.5,5.9-3.5c0.6,0,1.2,0.1,1.7,0.2l-0.2,4c-0.6-0.2-1.2-0.3-1.8-0.3
				c-3.6,0-5.6,2-5.6,6.2v9.7h-3.7V45.8z"/>
			<path fill="#0073BE" d="M194.2,48.6v14c-2.7,1.7-7.2,2.6-10.6,2.6c-9.5,0-14.9-6.8-14.9-14.9c0-8.4,6-14.9,14.6-14.9
				c5.1,0,8.2,1.4,10.4,3.7l-2.7,2.9c-2.3-2.2-4.9-3-7.7-3c-6.4,0-10.5,5.1-10.5,11.3c0,6.4,4.7,11.3,10.8,11.3
				c2.6,0,5.2-0.5,6.9-1.5v-7.9h-6.2v-3.6H194.2z"/>
		</g>
	</g>
</g>
</svg>
