<svg xmlns="http://www.w3.org/2000/svg" viewBox="0 0 652 155.9"><style>.a{fill:#0073be}</style><g id="simbolos"><path d="M131.1 131.1c20.8-20.8 23.5-53.6 9-80.9 3.8 8.5 5.9 17.9 5.9 27.7 0 37.6-30.5 68-68 68-9.9 0-19.3-2.1-27.7-5.9 27.2 14.6 60 11.9 80.8-8.9zM15.8 105.7C12 97.2 9.9 87.8 9.9 78c0-37.6 30.5-68 68-68 9.9 0 19.3 2.1 27.7 5.9-27.3-14.5-60-11.9-80.9 9C4 45.6 1.3 78.4 15.8 105.7z" class="a"/><path d="M129 26.9c26.7 26.7 31.5 66.5 13.4 94.9 8.5-12.5 13.5-27.6 13.5-43.9 0-43.1-34.9-78-78-78C61.7 0 46.6 5 34.1 13.5 62.5-4.6 102.3.2 129 26.9zM26.9 129C.2 102.3-4.6 62.5 13.5 34.1 5 46.6 0 61.7 0 78c0 43.1 34.9 78 78 78 16.3 0 31.4-5 43.9-13.5-28.5 18-68.2 13.2-95-13.5z" class="a"/><path d="M114.4 41.5L78 26.4 41.5 41.5 26.4 78l15.1 36.5 36.5 15 36.5-15.1 15-36.4-15.1-36.5zm-.3 71l-10-34.1h24.1l-14.1 34.1zm-86.4-34h24.1l-10 34.1-14.1-34.1zm14.1-35.1l10 34.1H27.7l14.1-34.1zm35.7 34.1H53.6l23.8-23.8v23.8zm0 1v23.8L53.6 78.5h23.9zm1 0h23.8l-23.8 23.8V78.5zm0-1V53.6l23.8 23.8H78.5zM52.7 77L42.6 42.6 77 52.7 52.7 77zM77 103.2l-34.4 10.1 10.1-34.4L77 103.2zm26.2-24.3l10.1 34.4-34.4-10.1 24.3-24.3zM78.9 52.7l34.4-10.1L103.2 77 78.9 52.7zm-.4-.9V27.7l34.1 14.1-34.1 10zm-1 0l-34.1-10 34.1-14.1v24.1zm0 52.3v24.1l-34.1-14.1 34.1-10zm1 0l34.1 10-34.1 14.1v-24.1zm25.6-26.6l10-34.1 14.1 34.1h-24.1z" class="a"/><circle cx="52.4" cy="78" r="5.7" class="a"/><circle cx="78" cy="26.9" r="7.1" class="a"/><circle cx="78" cy="78" r="5.7" class="a"/><circle cx="78" cy="129" r="7.1" class="a"/><circle cx="26.9" cy="78" r="7.1" class="a"/><circle cx="129" cy="78" r="7.1" class="a"/><circle cx="41.9" cy="41.9" r="5.7" class="a"/><circle cx="114" cy="114" r="5.7" class="a"/><circle cx="41.9" cy="114" r="5.7" class="a"/><circle cx="114" cy="41.9" r="5.7" class="a"/><circle cx="103.5" cy="78" r="5.7" class="a"/><circle cx="78" cy="103.5" r="5.7" class="a"/><circle cx="78" cy="52.4" r="5.7" class="a"/><path d="M282.8-32.6h-11.3c-5.9 0-10.6-4.8-10.6-10.6 0-5.9 4.8-10.6 10.6-10.6h11.3c5.9 0 10.6 4.8 10.6 10.6s-4.8 10.6-10.6 10.6z" fill="#82A0AF"/></g><g id="texto"><path d="M632.7 109.4c0 4.3 3.9 7.1 8.1 7.1 2.8 0 4.8-1.4 6.6-3.6l3.4 2.7c-2.5 3.3-6 5-10.6 5-7.6 0-12.4-5.5-12.4-12.8 0-7.3 5.2-12.8 12.4-12.8 8.5 0 11.7 6.6 11.7 12.8v1.6h-19.2zm14.4-3.7c-.1-4-2.3-7.1-6.9-7.1-4.5 0-7.4 3.8-7.4 7.1h14.3zM622.2 119.9h-4.9v-3.5h-.1c-1.9 2.6-5.5 4.1-8.9 4.1-7.9 0-13-5.7-13-12.9 0-7.4 5.1-12.6 13-12.6 3.7 0 7.2 1.3 8.9 3.8h.1V83.6h4.9v36.3zm-4.9-12.3c0-5-3.2-8.6-8.4-8.6s-8.4 3.6-8.4 8.6 3.2 8.6 8.4 8.6 8.4-3.7 8.4-8.6zM569.6 98.5c2.6-2.4 6.3-3.6 9.6-3.6 7.2 0 10.1 3.9 10.1 8.1v12.4c0 1.7.1 3.1.2 4.4h-4.1c-.1-1.2-.2-2.5-.2-3.7h-.1c-2 3.1-4.8 4.3-8.5 4.3-4.5 0-8.4-2.6-8.4-7.3 0-6.2 6-8.4 13.4-8.4h3.4v-1c0-2.5-1.8-5.1-5.8-5.1-3.5 0-5.2 1.5-6.9 2.8l-2.7-2.9zm13 9.7c-4.4 0-9.7.8-9.7 4.7 0 2.8 2 3.9 5.2 3.9 5.1 0 6.9-3.8 6.9-7.1v-1.5h-2.4zM562.7 119.9h-4.9v-3.5h-.1c-1.9 2.6-5.5 4.1-8.9 4.1-7.9 0-13-5.7-13-12.9 0-7.4 5.1-12.6 13-12.6 3.7 0 7.2 1.3 8.9 3.8h.1V83.6h4.9v36.3zm-4.9-12.3c0-5-3.2-8.6-8.4-8.6s-8.4 3.6-8.4 8.6 3.2 8.6 8.4 8.6 8.4-3.7 8.4-8.6zM525.8 95h4.3v25.5h-4.3z" class="a"/><circle cx="528" cy="86.5" r="2.8" class="a"/><path class="a" d="M514.5 83.6h4.3v36.9h-4.3zM486 98.5c2.6-2.4 6.3-3.6 9.6-3.6 7.2 0 10.1 3.9 10.1 8.1v12.4c0 1.7.1 3.1.2 4.4h-4.1c-.1-1.2-.2-2.5-.2-3.7h-.1c-2 3.1-4.8 4.3-8.5 4.3-4.5 0-8.4-2.6-8.4-7.3 0-6.2 6-8.4 13.4-8.4h3.4v-1c0-2.5-1.8-5.1-5.8-5.1-3.5 0-5.2 1.5-6.9 2.8l-2.7-2.9zm13 9.7c-4.4 0-9.7.8-9.7 4.7 0 2.8 2 3.9 5.2 3.9 5.1 0 6.9-3.8 6.9-7.1v-1.5H499zM479.1 119.8h-4.6V116h-.1c-1.2 2.6-4.2 4.5-7.9 4.5-4.7 0-8.7-2.9-8.7-9.5V95h4.6v14.7c0 4.7 2.6 6.4 5.5 6.4 3.8 0 6.7-2.5 6.7-8.3V95h4.6v24.8zM452.1 120.5H432c-9.9 0-18.1-7.7-18.1-18.4 0-10.6 7.9-18.5 18.1-18.5 9.8 0 17.8 7.7 17.8 18 0 6.1-2.8 12.1-8 14.5v.1h10.4v4.3zm-7.4-18.7c0-7.6-5.5-13.6-12.9-13.6-7.3 0-12.9 6-12.9 13.5 0 7.9 5.3 14.2 12.9 14.2 7.6 0 12.9-6.2 12.9-14.1zM381.1 98.5c2.6-2.4 6.3-3.6 9.6-3.6 7.2 0 10.1 3.9 10.1 8.1v12.4c0 1.7.1 3.1.2 4.4h-4c-.1-1.2-.2-2.5-.2-3.7h-.1c-2 3.1-4.8 4.3-8.5 4.3-4.5 0-8.4-2.6-8.4-7.3 0-6.2 6-8.4 13.4-8.4h3.4v-1c0-2.5-1.8-5.1-5.8-5.1-3.5 0-5.2 1.5-6.9 2.8l-2.8-2.9zm13 9.7c-4.4 0-9.7.8-9.7 4.7 0 2.8 2 3.9 5.2 3.9 5.1 0 6.9-3.8 6.9-7.1v-1.5h-2.4zM374.2 119.9h-4.9v-3.5h-.1c-1.9 2.6-5.5 4.1-8.9 4.1-7.9 0-13-5.7-13-12.9 0-7.4 5.1-12.6 13-12.6 3.7 0 7.2 1.3 8.9 3.8h.1V83.6h4.9v36.3zm-4.9-12.3c0-5-3.2-8.6-8.4-8.6s-8.4 3.6-8.4 8.6 3.2 8.6 8.4 8.6 8.4-3.7 8.4-8.6zM321.7 95c7.1 0 12.8 5.7 12.8 12.8 0 7.1-5.6 12.8-12.8 12.8-7.1 0-12.8-5.7-12.8-12.8.1-7.2 5.7-12.8 12.8-12.8zm0 21.2c4.9 0 7.9-3.5 7.9-8.5s-3-8.5-7.9-8.5-7.9 3.5-7.9 8.5 3.1 8.5 7.9 8.5zM284.9 89.3c.5-2.7 2.1-5.5 5.1-5.5 1.5 0 2.9.6 4.3 1.2 1 .4 1.7.9 2.7.9 1.4 0 2.1-1 2.5-2.3h2.4c-.4 2.7-1.8 5.5-4.8 5.5-1.4 0-2.8-.6-4.1-1.1-1-.4-2.2-1-3.3-1-1.3 0-2 1.2-2.4 2.3h-2.4zM283.3 98.5c2.6-2.4 6.3-3.6 9.6-3.6 7.2 0 10.1 3.9 10.1 8.1v12.4c0 1.7.1 3.1.2 4.4h-4.1c-.1-1.2-.2-2.5-.2-3.7h.1c-2 3.1-4.8 4.3-8.5 4.3-4.5 0-8.4-2.6-8.4-7.3 0-6.2 6-8.4 13.4-8.4h3.4v-1c0-2.5-1.8-5.1-5.8-5.1-3.5 0-5.2 1.5-6.9 2.8l-2.9-2.9zm13 9.7c-4.4 0-9.7.8-9.7 4.7 0 2.8 2 3.9 5.2 3.9 5.1 0 6.9-3.8 6.9-7.1v-1.5h-2.4zM276.4 98.9h-6.9v11.9c0 2.7 0 5.5 3.5 5.5 1.1 0 2.4-.2 3.3-.7v4.1c-1.1.6-3.3.8-4.2.8-7.3 0-7.4-4.3-7.4-8.1V98.9h-5.4V95h5.4v-5.7h4.7V95h6.9v3.9zM250.7 101.7c-1.1-1.3-2.8-2.4-5.1-2.4-2.2 0-4.2 1-4.2 2.7 0 2.9 4.3 3.3 6.4 3.8 4.1 1 7.3 2.5 7.3 7.1 0 5.5-5.2 7.6-10.2 7.6-4.1 0-7.2-1-9.7-4.3l3.6-2.9c1.5 1.5 3.3 2.9 6.1 2.9 2.4 0 5.1-1 5.1-3.1 0-2.8-4-3.3-6-3.7-4.1-1-7.7-2.3-7.7-6.9 0-5.1 4.8-7.5 9.5-7.5 3.3 0 6.8 1.1 8.6 4l-3.7 2.7zM211.8 109.4c0 4.3 3.9 7.1 8.1 7.1 2.8 0 4.8-1.4 6.6-3.6l3.4 2.7c-2.5 3.3-6 5-10.6 5-7.6 0-12.4-5.5-12.4-12.8 0-7.3 5.2-12.8 12.4-12.8 8.5 0 11.7 6.6 11.7 12.8v1.6h-19.2zm14.4-3.7c-.1-4-2.3-7.1-6.9-7.1-4.5 0-7.4 3.8-7.4 7.1h14.3zM201.3 100v17.3c-3.5 2.1-9.2 3.2-13.5 3.2-12.1 0-19.1-8.5-19.1-18.4 0-10.4 7.7-18.4 18.6-18.4 6.6 0 10.5 1.7 13.3 4.6l-3.4 3.6c-2.9-2.8-6.3-3.7-9.9-3.7-8.2 0-13.5 6.3-13.5 14 0 7.9 6 14 13.9 14 3.4 0 6.6-.6 8.8-1.8v-9.8h-7.9V100h12.7zM561.3 45.8h3.3v3h.1c.4-1.1 2.7-3.5 6-3.5 2.8 0 4.7 1.2 5.9 3.6 1.2-2.4 3.7-3.6 5.9-3.6 5.8 0 7.1 4.2 7.1 8.6v11.3H586V54.4c0-2.9-.6-5.6-4-5.6s-4.8 2.4-4.8 5.8v10.6h-3.6V55.1c0-3.7-.5-6.3-4-6.3-2.6 0-4.9 2-4.9 6.4v10h-3.6V45.8zM540.9 56.6c0 3.3 3 5.5 6.2 5.5 2.1 0 3.7-1.1 5-2.8l2.6 2.1c-1.9 2.6-4.6 3.9-8.1 3.9-5.8 0-9.4-4.3-9.4-9.9 0-5.7 4-9.9 9.5-9.9 6.5 0 8.9 5.1 8.9 10v1.3h-14.7zm11-2.9c-.1-3.1-1.8-5.5-5.3-5.5-3.4 0-5.7 3-5.7 5.5h11zM507 48.8c2-1.9 4.9-2.8 7.5-2.8 5.6 0 7.9 3 7.9 6.3V62c0 1.3 0 2.4.2 3.4h-3.2c-.1-1-.1-1.9-.1-2.9h-.1c-1.6 2.4-3.7 3.3-6.6 3.3-3.5 0-6.5-2-6.5-5.7 0-4.9 4.7-6.5 10.4-6.5h2.6v-.8c0-2-1.4-4-4.5-4-2.7 0-4.1 1.2-5.4 2.2l-2.2-2.2zm10.1 7.5c-3.4 0-7.5.6-7.5 3.6 0 2.2 1.6 3.1 4.1 3.1 4 0 5.4-2.9 5.4-5.5v-1.2h-2zM498.3 50.6c-.9-1-2.2-1.9-4-1.9-1.7 0-3.3.8-3.3 2.1 0 2.3 3.4 2.6 5 2.9 3.2.8 5.7 2 5.7 5.5 0 4.3-4.1 5.9-8 5.9-3.2 0-5.7-.8-7.6-3.3l2.8-2.2c1.2 1.2 2.6 2.2 4.8 2.2 1.9 0 4-.8 4-2.4 0-2.2-3.1-2.5-4.7-2.9-3.2-.8-6-1.8-6-5.4 0-3.9 3.8-5.8 7.5-5.8 2.6 0 5.3.9 6.7 3.1l-2.9 2.2zM478.3 35.4c1.5 0 2.8 1.3 2.8 2.8 0 1.5-1.3 2.8-2.8 2.8-1.5 0-2.8-1.3-2.8-2.8 0-1.5 1.3-2.8 2.8-2.8zM476.2 45.4h4.3v19.8h-4.3zM469.1 64.7h-3.6v-3h-.1c-.9 2-3.4 3.5-6.3 3.5-3.7 0-7-2.2-7-7.4V45.4h3.6v11.4c0 3.6 2.1 5 4.4 5 3 0 5.3-2 5.3-6.5v-10h3.6v19.4zM445 75.1h-3.7V62.3h-.1c-1.3 2-3.9 2.9-6.6 2.9-5.8 0-9.5-4-9.5-9.7 0-5.7 3.6-10.1 9.5-10.1 2.5 0 5.2 1.2 6.6 3.2h.1v-2.8h3.7v29.3zm-9.9-26.3c-3.8 0-6.2 2.8-6.2 6.7 0 3.9 2.4 6.7 6.2 6.7 3.8 0 6.2-2.8 6.2-6.7 0-3.9-2.3-6.7-6.2-6.7zM417.5 50.6c-.9-1-2.2-1.9-4-1.9-1.7 0-3.3.8-3.3 2.1 0 2.3 3.4 2.6 5 2.9 3.2.8 5.7 2 5.7 5.5 0 4.3-4.1 5.9-8 5.9-3.2 0-5.7-.8-7.6-3.3l2.8-2.2c1.2 1.2 2.6 2.2 4.8 2.2 1.9 0 4-.8 4-2.4 0-2.2-3.1-2.5-4.7-2.9-3.2-.8-6-1.8-6-5.4 0-3.9 3.8-5.8 7.5-5.8 2.6 0 5.3.9 6.7 3.1l-2.9 2.2zM386.4 56.6c0 3.3 3 5.5 6.2 5.5 2.1 0 3.7-1.1 5-2.8l2.6 2.1c-1.9 2.6-4.6 3.9-8.1 3.9-5.8 0-9.4-4.3-9.4-9.9 0-5.7 4-9.9 9.5-9.9 6.5 0 8.9 5.1 8.9 10v1.3h-14.7zm11-2.9c-.1-3.1-1.8-5.5-5.3-5.5-3.4 0-5.7 3-5.7 5.5h11zM358.6 45.8h3.7v2.8h.1c1.4-2.1 4-3.2 6.6-3.2 5.9 0 9.5 4.4 9.5 10.1 0 5.8-3.7 9.7-9.5 9.7-2.7 0-5.3-.9-6.6-2.9h-.1v12.8h-3.7V45.8zm3.7 9.7c0 3.9 2.4 6.7 6.2 6.7 3.8 0 6.2-2.8 6.2-6.7 0-3.9-2.4-6.7-6.2-6.7-3.8 0-6.2 2.8-6.2 6.7zM328.3 56.6c0 3.3 3 5.5 6.2 5.5 2.1 0 3.7-1.1 5-2.8l2.6 2.1c-1.9 2.6-4.6 3.9-8.1 3.9-5.8 0-9.4-4.3-9.4-9.9 0-5.7 4-9.9 9.5-9.9 6.5 0 8.9 5.1 8.9 10v1.3h-14.7zm11-2.9c-.1-3.1-1.8-5.5-5.3-5.5-3.4 0-5.7 3-5.7 5.5h11zM317.5 64.7h-3.6v-2.8h-.1c-1.4 2.1-4 3.2-6.6 3.2-5.9 0-9.6-4.4-9.6-10.1 0-5.8 3.8-9.7 9.6-9.7 2.7 0 5.3.9 6.6 2.9h.1V35.4h3.6v29.3zm-3.6-9.6c0-3.9-2.4-6.7-6.2-6.7s-6.2 2.8-6.2 6.7c0 3.9 2.4 6.7 6.2 6.7s6.2-2.8 6.2-6.7zM276.4 45.4c5.6 0 9.9 4.4 9.9 9.9s-4.4 9.9-9.9 9.9-9.9-4.4-9.9-9.9 4.3-9.9 9.9-9.9zm0 16.4c3.8 0 6.1-2.7 6.1-6.6 0-3.8-2.4-6.6-6.1-6.6-3.8 0-6.1 2.7-6.1 6.6-.1 3.9 2.3 6.6 6.1 6.6zM240.9 45.8h3.7v2.8h.1c1.4-2.1 4-3.2 6.6-3.2 5.9 0 9.5 4.4 9.5 10.1 0 5.8-3.7 9.7-9.5 9.7-2.7 0-5.3-.9-6.6-2.9h-.1v12.8h-3.7V45.8zm3.7 9.7c0 3.9 2.4 6.7 6.2 6.7 3.8 0 6.2-2.8 6.2-6.7 0-3.9-2.4-6.7-6.2-6.7-3.8 0-6.2 2.8-6.2 6.7zM235.3 64.7h-3.6v-3h-.1c-.9 2-3.4 3.5-6.3 3.5-3.7 0-7-2.2-7-7.4V45.4h3.6v11.4c0 3.6 2.1 5 4.4 5 3 0 5.3-2 5.3-6.5v-10h3.6v19.4zM201.3 45.8h3.7v3h.1c1-2 3.4-3.5 5.9-3.5.6 0 1.2.1 1.7.2l-.2 4c-.6-.2-1.2-.3-1.8-.3-3.6 0-5.6 2-5.6 6.2v9.7h-3.7V45.8zM194.2 48.6v14c-2.7 1.7-7.2 2.6-10.6 2.6-9.5 0-14.9-6.8-14.9-14.9 0-8.4 6-14.9 14.6-14.9 5.1 0 8.2 1.4 10.4 3.7L191 42c-2.3-2.2-4.9-3-7.7-3-6.4 0-10.5 5.1-10.5 11.3 0 6.4 4.7 11.3 10.8 11.3 2.6 0 5.2-.5 6.9-1.5v-7.9h-6.2v-3.6h9.9z"/></g></svg>
